<?xml version="1.0" standalone="no"?><!-- Generator: Gravit.io --><svg xmlns="http://www.w3.org/2000/svg" xmlns:xlink="http://www.w3.org/1999/xlink" style="isolation:isolate" viewBox="270.72 301.183 144.36 99.337" width="144.36" height="99.337"><path d="M 372.72 314.554084 L 373 314.363984 L 373 301.183179 L 356.773201 312.2 L 356.64 312.2 L 356.64 312.290434 L 339.351391 324.028147 Q 336.572786 321.392584 333.06 319.28 Q 324.48 314.12 312.72 314.12 Q 302.76 314.12 294.96 317.84 Q 287.16 321.56 281.76 327.56 Q 276.36 333.56 273.54 341.18 Q 270.72 348.8 270.72 356.6 L 270.72 356.6 Q 270.72 364.76 273.78 372.62 Q 276.84 380.48 282.3 386.66 Q 287.76 392.84 295.32 396.68 Q 302.88 400.52 312 400.52 Q 317.16 400.52 322.56 399.2 Q 327.96 397.88 332.7 395.36 Q 337.44 392.84 341.22 389.18 Q 345 385.52 347.04 380.72 L 333.48 372.92 Q 332.04 376.4 329.64 378.86 Q 327.24 381.32 324.42 382.88 Q 321.6 384.44 318.48 385.16 Q 315.36 385.88 312.48 385.88 Q 306.96 385.88 302.34 383.48 Q 297.72 381.08 294.42 377.12 Q 291.12 373.16 289.32 367.94 Q 287.52 362.72 287.52 357.08 Q 287.52 352.04 289.08 346.94 Q 290.64 341.84 293.7 337.82 Q 296.76 333.8 301.38 331.28 Q 306 328.76 312.24 328.76 Q 315.12 328.76 318.12 329.42 Q 321.12 330.08 323.88 331.52 Q 326.64 332.96 329.04 335.42 Q 331.44 337.88 333.12 341.48 L 337.261293 338.627978 L 356.64 325.471239 L 356.64 399.8 L 372.72 399.8 L 372.72 363.08 Q 373.56 360.2 375.36 357.8 Q 377.16 355.4 379.32 353.66 Q 381.48 351.92 383.88 350.96 Q 386.28 350 388.44 350 Q 393.48 350 396.24 353.54 Q 399 357.08 399 364.52 L 399 399.8 L 415.08 399.8 L 415.08 360.56 L 415.08 360.56 Q 415.08 355.88 414.24 351.44 Q 413.4 347 411.24 343.52 Q 409.08 340.04 405.24 337.94 Q 401.4 335.84 395.28 335.84 Q 388.08 335.84 382.14 339.14 Q 376.2 342.44 372.72 348.56 L 372.72 314.554084 Z" style="stroke:none;fill:#FF5A5F;stroke-miterlimit:10;"/></svg>