<?xml version="1.0" standalone="no"?><!-- Generator: Gravit.io --><svg xmlns="http://www.w3.org/2000/svg" xmlns:xlink="http://www.w3.org/1999/xlink" style="isolation:isolate" viewBox="270.72 301.183 428.76 99.817" width="428.76" height="99.817"><path d="M 372.72 314.554084 L 373 314.363984 L 373 301.183179 L 356.773201 312.2 L 356.64 312.2 L 356.64 312.290434 L 339.351391 324.028147 Q 336.572786 321.392584 333.06 319.28 Q 324.48 314.12 312.72 314.12 Q 302.76 314.12 294.96 317.84 Q 287.16 321.56 281.76 327.56 Q 276.36 333.56 273.54 341.18 Q 270.72 348.8 270.72 356.6 L 270.72 356.6 Q 270.72 364.76 273.78 372.62 Q 276.84 380.48 282.3 386.66 Q 287.76 392.84 295.32 396.68 Q 302.88 400.52 312 400.52 Q 317.16 400.52 322.56 399.2 Q 327.96 397.88 332.7 395.36 Q 337.44 392.84 341.22 389.18 Q 345 385.52 347.04 380.72 L 333.48 372.92 Q 332.04 376.4 329.64 378.86 Q 327.24 381.32 324.42 382.88 Q 321.6 384.44 318.48 385.16 Q 315.36 385.88 312.48 385.88 Q 306.96 385.88 302.34 383.48 Q 297.72 381.08 294.42 377.12 Q 291.12 373.16 289.32 367.94 Q 287.52 362.72 287.52 357.08 Q 287.52 352.04 289.08 346.94 Q 290.64 341.84 293.7 337.82 Q 296.76 333.8 301.38 331.28 Q 306 328.76 312.24 328.76 Q 315.12 328.76 318.12 329.42 Q 321.12 330.08 323.88 331.52 Q 326.64 332.96 329.04 335.42 Q 331.44 337.88 333.12 341.48 L 337.261293 338.627978 L 356.64 325.471239 L 356.64 399.8 L 372.72 399.8 L 372.72 363.08 Q 373.56 360.2 375.36 357.8 Q 377.16 355.4 379.32 353.66 Q 381.48 351.92 383.88 350.96 Q 386.28 350 388.44 350 Q 393.48 350 396.24 353.54 Q 399 357.08 399 364.52 L 399 399.8 L 415.08 399.8 L 415.08 360.56 L 415.08 360.56 Q 415.08 355.88 414.24 351.44 Q 413.4 347 411.24 343.52 Q 409.08 340.04 405.24 337.94 Q 401.4 335.84 395.28 335.84 Q 388.08 335.84 382.14 339.14 Q 376.2 342.44 372.72 348.56 L 372.72 314.554084 Z M 699.48 336.2 Q 698.88 336.08 698.22 336.08 Q 697.56 336.08 696.24 336.08 Q 693.72 336.08 691.02 337.1 Q 688.32 338.12 685.68 340.04 Q 683.04 341.96 680.76 344.54 Q 678.48 347.12 676.8 350.36 L 676.8 336.92 L 662.04 336.92 L 662.04 399.8 L 678.12 399.8 L 678.12 361.76 Q 680.64 356.36 686.4 353.66 Q 692.16 350.96 699.48 350.84 L 699.48 336.2 L 699.48 336.2 Z M 603 363.08 Q 603.24 359.6 604.62 356.72 Q 606 353.84 608.16 351.8 Q 610.32 349.76 613.14 348.62 Q 615.96 347.48 619.2 347.48 Q 625.8 347.48 630.42 351.74 Q 635.04 356 635.64 363.08 L 603 363.08 L 603 363.08 Z M 619.32 401 Q 629.88 401 637.5 396.38 Q 645.12 391.76 648.6 384.56 L 634.8 380.72 Q 633.24 384.56 628.98 386.9 Q 624.72 389.24 619.92 389.24 Q 616.8 389.24 613.92 388.16 Q 611.04 387.08 608.76 385.04 Q 606.48 383 605.04 380.12 Q 603.6 377.24 603.24 373.52 L 651.84 373.52 Q 652.08 372.56 652.14 371.12 Q 652.2 369.68 652.2 368.12 Q 652.2 361.76 649.98 355.88 Q 647.76 350 643.5 345.56 Q 639.24 341.12 633.18 338.48 Q 627.12 335.84 619.44 335.84 Q 611.76 335.84 605.58 338.48 Q 599.4 341.12 595.08 345.62 Q 590.76 350.12 588.48 356.06 Q 586.2 362 586.2 368.72 Q 586.2 375.2 588.54 381.08 Q 590.88 386.96 595.2 391.4 Q 599.52 395.84 605.64 398.42 Q 611.76 401 619.32 401 L 619.32 401 Z M 578.52 383.84 Q 577.08 384.44 574.68 385.28 Q 572.28 386.12 569.76 386.12 Q 567.24 386.12 565.5 384.74 Q 563.76 383.36 563.76 380 L 563.76 349.28 L 576.96 349.28 L 576.96 336.92 L 563.76 336.92 L 563.76 316.52 L 547.68 316.52 L 547.68 336.92 L 539.4 336.92 L 539.4 349.28 L 547.68 349.28 L 547.68 385.4 Q 547.68 389.6 549 392.54 Q 550.32 395.48 552.54 397.34 Q 554.76 399.2 557.7 400.04 Q 560.64 400.88 564 400.88 Q 569.16 400.88 573.84 399.44 Q 578.52 398 581.76 396.56 L 578.52 383.84 L 578.52 383.84 Z M 532.44 383.84 Q 531 384.44 528.6 385.28 Q 526.2 386.12 523.68 386.12 Q 521.16 386.12 519.42 384.74 Q 517.68 383.36 517.68 380 L 517.68 349.28 L 530.88 349.28 L 530.88 336.92 L 517.68 336.92 L 517.68 316.52 L 501.6 316.52 L 501.6 336.92 L 493.32 336.92 L 493.32 349.28 L 501.6 349.28 L 501.6 385.4 Q 501.6 389.6 502.92 392.54 Q 504.24 395.48 506.46 397.34 Q 508.68 399.2 511.62 400.04 Q 514.56 400.88 517.92 400.88 Q 523.08 400.88 527.76 399.44 Q 532.44 398 535.68 396.56 L 532.44 383.84 L 532.44 383.84 Z M 450.84 389.24 Q 446.28 389.24 443.16 386.54 Q 440.04 383.84 440.04 379.76 Q 440.04 375.44 444 372.62 Q 447.96 369.8 454.2 369.8 Q 457.32 369.8 460.68 370.46 Q 464.04 371.12 466.92 372.2 L 466.92 379.4 Q 466.92 381.92 464.28 383.96 Q 462.24 386.36 458.58 387.8 Q 454.92 389.24 450.84 389.24 L 450.84 389.24 Z M 446.28 401 Q 453.12 401 459.12 398.12 Q 465.12 395.24 469.32 389.72 L 469.68 393.2 Q 470.28 396.56 472.74 398.6 Q 475.2 400.64 479.76 400.64 Q 482.76 400.64 486.84 399.8 L 486.84 386.12 Q 484.8 386 483.9 384.92 Q 483 383.84 483 381.32 L 483 361.76 Q 483 349.16 475.5 342.5 Q 468 335.84 454.44 335.84 Q 440.4 335.84 428.28 343.88 L 433.2 354.08 Q 438.24 350.6 443.04 348.8 Q 447.84 347 452.88 347 Q 459.84 347 463.38 350.36 Q 466.92 353.72 466.92 359.96 L 466.92 363.56 Q 463.8 362.24 459.78 361.52 Q 455.76 360.8 451.56 360.8 Q 445.68 360.8 440.76 362.3 Q 435.84 363.8 432.3 366.44 Q 428.76 369.08 426.78 372.86 Q 424.8 376.64 424.8 381.08 Q 424.8 385.4 426.42 389 Q 428.04 392.6 430.92 395.3 Q 433.8 398 437.76 399.5 Q 441.72 401 446.28 401 L 446.28 401 Z" style="stroke:none;fill:#FF5A5F;stroke-miterlimit:10;"/></svg>